<?xml version="1.0" standalone="no"?><!DOCTYPE svg PUBLIC "-//W3C//DTD SVG 1.1//EN" "http://www.w3.org/Graphics/SVG/1.1/DTD/svg11.dtd"><svg t="1784725466228" class="icon" viewBox="0 0 1024 1024" version="1.1" xmlns="http://www.w3.org/2000/svg" p-id="2667" xmlns:xlink="http://www.w3.org/1999/xlink" width="200" height="200"><path d="M945.6 824H75.2c-41.6 0-73.6-32-73.6-73.6V272c0-41.6 32-73.6 73.6-73.6h873.6c41.6 0 73.6 32 73.6 73.6v481.6c0 38.4-35.2 70.4-76.8 70.4z m-697.6-145.6v-192l99.2 121.6 99.2-121.6v192h96V345.6h-99.2l-99.2 121.6-99.2-121.6H145.6v334.4l102.4-1.6z m656-166.4h-99.2V345.6h-99.2V512H608l147.2 172.8L904 512z" fill="#2c2c2c" p-id="2668"></path></svg>